<mxfile host="Electron" modified="2023-10-05T06:40:27.722Z" agent="Mozilla/5.0 (Windows NT 10.0; Win64; x64) AppleWebKit/537.36 (KHTML, like Gecko) draw.io/22.0.2 Chrome/114.0.5735.289 Electron/25.8.4 Safari/537.36" etag="UFcmwFagA_7iroKBb0QM" version="22.0.2" type="device">
  <diagram name="第 1 页" id="H1LwaToj6vbdPQIdkxBZ">
    <mxGraphModel dx="819" dy="502" grid="1" gridSize="10" guides="1" tooltips="1" connect="1" arrows="1" fold="1" page="1" pageScale="1" pageWidth="1169" pageHeight="827" math="0" shadow="0">
      <root>
        <mxCell id="0" />
        <mxCell id="1" parent="0" />
        <mxCell id="RblZgC6OSpCZEYzhn7Gm-24" value="" style="rounded=0;whiteSpace=wrap;html=1;fillColor=#f5f5f5;fontColor=#333333;strokeColor=#666666;" parent="1" vertex="1">
          <mxGeometry x="150" y="310" width="760" height="260" as="geometry" />
        </mxCell>
        <mxCell id="RblZgC6OSpCZEYzhn7Gm-1" value="" style="rounded=0;whiteSpace=wrap;html=1;fillColor=#fff2cc;strokeColor=#d6b656;" parent="1" vertex="1">
          <mxGeometry x="160" y="340" width="155" height="80" as="geometry" />
        </mxCell>
        <mxCell id="RblZgC6OSpCZEYzhn7Gm-2" value="message" style="text;html=1;strokeColor=none;fillColor=none;align=center;verticalAlign=middle;whiteSpace=wrap;rounded=0;fontStyle=1;fontSize=18;" parent="1" vertex="1">
          <mxGeometry x="207.5" y="340" width="60" height="30" as="geometry" />
        </mxCell>
        <mxCell id="RblZgC6OSpCZEYzhn7Gm-3" value="" style="endArrow=none;html=1;rounded=0;entryX=1;entryY=0.25;entryDx=0;entryDy=0;exitX=0;exitY=0.25;exitDx=0;exitDy=0;" parent="1" edge="1">
          <mxGeometry width="50" height="50" relative="1" as="geometry">
            <mxPoint x="160" y="370" as="sourcePoint" />
            <mxPoint x="315" y="370" as="targetPoint" />
          </mxGeometry>
        </mxCell>
        <mxCell id="RblZgC6OSpCZEYzhn7Gm-4" value="void *vpMessage[5]" style="text;html=1;strokeColor=none;fillColor=none;align=center;verticalAlign=middle;whiteSpace=wrap;rounded=0;fontStyle=1;fontSize=14;" parent="1" vertex="1">
          <mxGeometry x="160" y="370" width="155" height="30" as="geometry" />
        </mxCell>
        <mxCell id="RblZgC6OSpCZEYzhn7Gm-5" value="uint16_t hwLength" style="text;html=1;strokeColor=none;fillColor=none;align=center;verticalAlign=middle;whiteSpace=wrap;rounded=0;fontStyle=1;fontSize=14;" parent="1" vertex="1">
          <mxGeometry x="160" y="390" width="155" height="40" as="geometry" />
        </mxCell>
        <mxCell id="RblZgC6OSpCZEYzhn7Gm-6" value="" style="endArrow=classic;html=1;rounded=0;" parent="1" edge="1">
          <mxGeometry width="50" height="50" relative="1" as="geometry">
            <mxPoint x="315" y="384.92999999999995" as="sourcePoint" />
            <mxPoint x="350" y="384.92999999999995" as="targetPoint" />
          </mxGeometry>
        </mxCell>
        <mxCell id="RblZgC6OSpCZEYzhn7Gm-7" value="" style="rounded=0;whiteSpace=wrap;html=1;fillColor=#e1d5e7;strokeColor=#9673a6;" parent="1" vertex="1">
          <mxGeometry x="350" y="370" width="155" height="80" as="geometry" />
        </mxCell>
        <mxCell id="RblZgC6OSpCZEYzhn7Gm-8" value="gmsi_uart_data_t" style="text;html=1;strokeColor=none;fillColor=none;align=center;verticalAlign=middle;whiteSpace=wrap;rounded=0;fontStyle=1;fontSize=18;" parent="1" vertex="1">
          <mxGeometry x="397.5" y="370" width="60" height="30" as="geometry" />
        </mxCell>
        <mxCell id="RblZgC6OSpCZEYzhn7Gm-9" value="" style="endArrow=none;html=1;rounded=0;entryX=1;entryY=0.25;entryDx=0;entryDy=0;exitX=0;exitY=0.25;exitDx=0;exitDy=0;" parent="1" edge="1">
          <mxGeometry width="50" height="50" relative="1" as="geometry">
            <mxPoint x="350" y="400" as="sourcePoint" />
            <mxPoint x="505" y="400" as="targetPoint" />
          </mxGeometry>
        </mxCell>
        <mxCell id="RblZgC6OSpCZEYzhn7Gm-10" value="uint8_t *ptData" style="text;html=1;strokeColor=none;fillColor=none;align=center;verticalAlign=middle;whiteSpace=wrap;rounded=0;fontStyle=1;fontSize=14;" parent="1" vertex="1">
          <mxGeometry x="350" y="400" width="155" height="30" as="geometry" />
        </mxCell>
        <mxCell id="RblZgC6OSpCZEYzhn7Gm-11" value="uint16_t hwLength" style="text;html=1;strokeColor=none;fillColor=none;align=center;verticalAlign=middle;whiteSpace=wrap;rounded=0;fontStyle=1;fontSize=14;" parent="1" vertex="1">
          <mxGeometry x="350" y="420" width="155" height="40" as="geometry" />
        </mxCell>
        <mxCell id="RblZgC6OSpCZEYzhn7Gm-12" value="" style="rounded=0;whiteSpace=wrap;html=1;fillColor=#e1d5e7;strokeColor=#9673a6;" parent="1" vertex="1">
          <mxGeometry x="540" y="370" width="155" height="80" as="geometry" />
        </mxCell>
        <mxCell id="RblZgC6OSpCZEYzhn7Gm-13" value="gmsi_uart_data_t" style="text;html=1;strokeColor=none;fillColor=none;align=center;verticalAlign=middle;whiteSpace=wrap;rounded=0;fontStyle=1;fontSize=18;" parent="1" vertex="1">
          <mxGeometry x="587.5" y="370" width="60" height="30" as="geometry" />
        </mxCell>
        <mxCell id="RblZgC6OSpCZEYzhn7Gm-14" value="" style="endArrow=none;html=1;rounded=0;entryX=1;entryY=0.25;entryDx=0;entryDy=0;exitX=0;exitY=0.25;exitDx=0;exitDy=0;" parent="1" edge="1">
          <mxGeometry width="50" height="50" relative="1" as="geometry">
            <mxPoint x="540" y="400" as="sourcePoint" />
            <mxPoint x="695" y="400" as="targetPoint" />
          </mxGeometry>
        </mxCell>
        <mxCell id="RblZgC6OSpCZEYzhn7Gm-15" value="uint8_t *ptData" style="text;html=1;strokeColor=none;fillColor=none;align=center;verticalAlign=middle;whiteSpace=wrap;rounded=0;fontStyle=1;fontSize=14;" parent="1" vertex="1">
          <mxGeometry x="540" y="400" width="155" height="30" as="geometry" />
        </mxCell>
        <mxCell id="RblZgC6OSpCZEYzhn7Gm-16" value="uint16_t hwLength" style="text;html=1;strokeColor=none;fillColor=none;align=center;verticalAlign=middle;whiteSpace=wrap;rounded=0;fontStyle=1;fontSize=14;" parent="1" vertex="1">
          <mxGeometry x="540" y="420" width="155" height="40" as="geometry" />
        </mxCell>
        <mxCell id="RblZgC6OSpCZEYzhn7Gm-17" value="" style="rounded=0;whiteSpace=wrap;html=1;fillColor=#e1d5e7;strokeColor=#9673a6;" parent="1" vertex="1">
          <mxGeometry x="730" y="370" width="155" height="80" as="geometry" />
        </mxCell>
        <mxCell id="RblZgC6OSpCZEYzhn7Gm-18" value="gmsi_uart_data_t" style="text;html=1;strokeColor=none;fillColor=none;align=center;verticalAlign=middle;whiteSpace=wrap;rounded=0;fontStyle=1;fontSize=18;" parent="1" vertex="1">
          <mxGeometry x="777.5" y="370" width="60" height="30" as="geometry" />
        </mxCell>
        <mxCell id="RblZgC6OSpCZEYzhn7Gm-19" value="" style="endArrow=none;html=1;rounded=0;entryX=1;entryY=0.25;entryDx=0;entryDy=0;exitX=0;exitY=0.25;exitDx=0;exitDy=0;" parent="1" edge="1">
          <mxGeometry width="50" height="50" relative="1" as="geometry">
            <mxPoint x="730" y="400" as="sourcePoint" />
            <mxPoint x="885" y="400" as="targetPoint" />
          </mxGeometry>
        </mxCell>
        <mxCell id="RblZgC6OSpCZEYzhn7Gm-20" value="uint8_t *ptData" style="text;html=1;strokeColor=none;fillColor=none;align=center;verticalAlign=middle;whiteSpace=wrap;rounded=0;fontStyle=1;fontSize=14;" parent="1" vertex="1">
          <mxGeometry x="730" y="400" width="155" height="30" as="geometry" />
        </mxCell>
        <mxCell id="RblZgC6OSpCZEYzhn7Gm-21" value="uint16_t hwLength" style="text;html=1;strokeColor=none;fillColor=none;align=center;verticalAlign=middle;whiteSpace=wrap;rounded=0;fontStyle=1;fontSize=14;" parent="1" vertex="1">
          <mxGeometry x="730" y="420" width="155" height="40" as="geometry" />
        </mxCell>
        <mxCell id="RblZgC6OSpCZEYzhn7Gm-22" value="" style="endArrow=classic;html=1;rounded=0;" parent="1" edge="1">
          <mxGeometry width="50" height="50" relative="1" as="geometry">
            <mxPoint x="505" y="384.75" as="sourcePoint" />
            <mxPoint x="540" y="384.75" as="targetPoint" />
          </mxGeometry>
        </mxCell>
        <mxCell id="RblZgC6OSpCZEYzhn7Gm-23" value="" style="endArrow=classic;html=1;rounded=0;" parent="1" edge="1">
          <mxGeometry width="50" height="50" relative="1" as="geometry">
            <mxPoint x="695" y="384.75" as="sourcePoint" />
            <mxPoint x="730" y="384.75" as="targetPoint" />
          </mxGeometry>
        </mxCell>
        <mxCell id="RblZgC6OSpCZEYzhn7Gm-25" value="Base" style="text;html=1;strokeColor=none;fillColor=none;align=center;verticalAlign=middle;whiteSpace=wrap;rounded=0;fontSize=20;fontStyle=5" parent="1" vertex="1">
          <mxGeometry x="810" y="520" width="60" height="30" as="geometry" />
        </mxCell>
      </root>
    </mxGraphModel>
  </diagram>
</mxfile>
